# xmcd
#
# Track frame offsets:
#	150
#	12571
#	26562
#	46655
#	61217
#	77267
#	92560
#	106351
#	125625
#	142859
#	158572
#
# Disc length: 2338 seconds
# Revision: 2
# Processed by: cddbd v1.5.2PL0 Copyright (c) Steve Scherf et al.
# Submitted via: dBpowerAMP V12.0
#
DISCID=7a09200b
DTITLE=Gil Grand - Burnin'
DYEAR=2002
DGENRE=Country
TTITLE0=There She Goes
TTITLE1=Burnin'
TTITLE2=Break It to Them Gently
TTITLE3=Cry a Little
TTITLE4=Never Comin' Down
TTITLE5=On Again Off Again
TTITLE6=Nice and Slow
TTITLE7=Trouble's Arms
TTITLE8=Run
TTITLE9=Sometimes She Cries
TTITLE10=Any Minute Now
EXTD=
EXTT0=
EXTT1=
EXTT2=
EXTT3=
EXTT4=
EXTT5=
EXTT6=
EXTT7=
EXTT8=
EXTT9=
EXTT10=
PLAYORDER=
